<svg xmlns="http://www.w3.org/2000/svg" width="230" height="3" viewBox="0 0 230 3">
  <metadata><?xpacket begin="﻿" id="W5M0MpCehiHzreSzNTczkc9d"?>
<x:xmpmeta xmlns:x="adobe:ns:meta/" x:xmptk="Adobe XMP Core 5.6-c138 79.159824, 2016/09/14-01:09:01        ">
   <rdf:RDF xmlns:rdf="http://www.w3.org/1999/02/22-rdf-syntax-ns#">
      <rdf:Description rdf:about=""/>
   </rdf:RDF>
</x:xmpmeta>
                                                                                                    
                                                                                                    
                                                                                                    
                                                                                                    
                                                                                                    
                                                                                                    
                                                                                                    
                                                                                                    
                                                                                                    
                                                                                                    
                                                                                                    
                                                                                                    
                                                                                                    
                                                                                                    
                                                                                                    
                                                                                                    
                                                                                                    
                                                                                                    
                                                                                                    
                                                                                                    
                           
<?xpacket end="w"?></metadata>
<defs>
    <style>
      .cls-1 {
        fill: #e3e4e6;
      }

      .cls-2 {
        fill: #f5e5b0;
      }

      .cls-2, .cls-3 {
        fill-rule: evenodd;
      }

      .cls-3 {
        fill: #ddc45d;
      }
    </style>
  </defs>
  <path id="圆角矩形_1_拷贝" data-name="圆角矩形 1 拷贝" class="cls-1" d="M0,0H230a0,0,0,0,1,0,0V3a0,0,0,0,1,0,0H1A1,1,0,0,1,0,2V0A0,0,0,0,1,0,0Z"/>
  <path id="矩形_3" data-name="矩形 3" class="cls-2" d="M6.347-12H20.429L-73.918,44H-88Z"/>
  <path id="矩形_3_拷贝" data-name="矩形 3 拷贝" class="cls-3" d="M20.429-12H34.51L-59.837,44H-73.918Z"/>
  <path id="矩形_3_拷贝_2" data-name="矩形 3 拷贝 2" class="cls-2" d="M34.51-12H48.592L-45.755,44H-59.837Z"/>
  <path id="矩形_3_拷贝_4" data-name="矩形 3 拷贝 4" class="cls-3" d="M48.592-12H62.674L-31.673,44H-45.755Z"/>
  <path id="矩形_3_拷贝_5" data-name="矩形 3 拷贝 5" class="cls-2" d="M62.674-12H76.755L-17.592,44H-31.673Z"/>
  <path id="矩形_3_拷贝_5-2" data-name="矩形 3 拷贝 5" class="cls-3" d="M76.755-12H90.837L-3.51,44H-17.592Z"/>
  <path id="矩形_3_拷贝_5-3" data-name="矩形 3 拷贝 5" class="cls-2" d="M89.837-12h14.081L9.571,44H-4.51Z"/>
  <path id="矩形_3_拷贝_5-4" data-name="矩形 3 拷贝 5" class="cls-3" d="M103.918-12H118L23.653,44H9.571Z"/>
  <path id="矩形_3_拷贝_6" data-name="矩形 3 拷贝 6" class="cls-2" d="M118.347-12h14.082L38.082,44H24Z"/>
  <path id="矩形_3_拷贝_6-2" data-name="矩形 3 拷贝 6" class="cls-3" d="M132.429-12H146.51L52.163,44H38.082Z"/>
  <path id="矩形_3_拷贝_6-3" data-name="矩形 3 拷贝 6" class="cls-2" d="M146.51-12h14.082L66.245,44H52.163Z"/>
  <path id="矩形_3_拷贝_6-4" data-name="矩形 3 拷贝 6" class="cls-3" d="M160.592-12h14.082L80.327,44H66.245Z"/>
  <path id="矩形_3_拷贝_6-5" data-name="矩形 3 拷贝 6" class="cls-2" d="M174.674-12h14.081L94.408,44H80.327Z"/>
  <path id="矩形_3_拷贝_6-6" data-name="矩形 3 拷贝 6" class="cls-3" d="M188.755-12h14.082L108.49,44H94.408Z"/>
  <path id="矩形_3_拷贝_6-7" data-name="矩形 3 拷贝 6" class="cls-2" d="M201.837-12h14.081L121.571,44H107.49Z"/>
  <path id="矩形_3_拷贝_6-8" data-name="矩形 3 拷贝 6" class="cls-3" d="M215.918-12H230L135.653,44H121.571Z"/>
  <path id="矩形_3_拷贝_7" data-name="矩形 3 拷贝 7" class="cls-2" d="M229.837-12h14.081L149.571,44H135.49Z"/>
  <path id="矩形_3_拷贝_7-2" data-name="矩形 3 拷贝 7" class="cls-3" d="M243.918-12H258L163.653,44H149.571Z"/>
</svg>
